<svg xmlns="http://www.w3.org/2000/svg" version="1.1" xmlns:xlink="http://www.w3.org/1999/xlink" xmlns:svgjs="http://svgjs.dev/svgjs" width="1440" height="560" preserveAspectRatio="none" viewBox="0 0 1440 560"><g mask="url(&quot;#SvgjsMask1000&quot;)" fill="none"><rect width="1440" height="560" x="0" y="0" fill="#0e2a47"></rect><path d="M131.68 498.96L196.64 536.46L196.64 611.46L131.68 648.96L66.73 611.46L66.73 536.46zM326.55 386.46L391.5 423.96L391.5 498.96L326.55 536.46L261.59 498.96L261.59 423.96zM456.45 -63.54L521.41 -26.04L521.41 48.96L456.45 86.46L391.5 48.96L391.5 -26.04zM586.36 161.46L651.31 198.96L651.31 273.96L586.36 311.46L521.41 273.96L521.41 198.96zM651.31 273.96L716.27 311.46L716.27 386.46L651.31 423.96L586.36 386.46L586.36 311.46zM716.27 -63.54L781.22 -26.04L781.22 48.96L716.27 86.46L651.31 48.96L651.31 -26.04zM716.27 161.46L781.22 198.96L781.22 273.96L716.27 311.46L651.31 273.96L651.31 198.96zM1235.9 386.46L1300.85 423.96L1300.85 498.96L1235.9 536.46L1170.94 498.96L1170.94 423.96zM1430.76 273.96L1495.71 311.46L1495.71 386.46L1430.76 423.96L1365.81 386.46L1365.81 311.46zM1560.67 273.96L1625.62 311.46L1625.62 386.46L1560.67 423.96L1495.71 386.46L1495.71 311.46z" stroke="#03305d" stroke-width="2"></path><path d="M124.18 498.96 a7.5 7.5 0 1 0 15 0 a7.5 7.5 0 1 0 -15 0zM189.14 536.46 a7.5 7.5 0 1 0 15 0 a7.5 7.5 0 1 0 -15 0zM189.14 611.46 a7.5 7.5 0 1 0 15 0 a7.5 7.5 0 1 0 -15 0zM124.18 648.96 a7.5 7.5 0 1 0 15 0 a7.5 7.5 0 1 0 -15 0zM59.23 611.46 a7.5 7.5 0 1 0 15 0 a7.5 7.5 0 1 0 -15 0zM59.23 536.46 a7.5 7.5 0 1 0 15 0 a7.5 7.5 0 1 0 -15 0zM319.05 386.46 a7.5 7.5 0 1 0 15 0 a7.5 7.5 0 1 0 -15 0zM384 423.96 a7.5 7.5 0 1 0 15 0 a7.5 7.5 0 1 0 -15 0zM384 498.96 a7.5 7.5 0 1 0 15 0 a7.5 7.5 0 1 0 -15 0zM319.05 536.46 a7.5 7.5 0 1 0 15 0 a7.5 7.5 0 1 0 -15 0zM254.09 498.96 a7.5 7.5 0 1 0 15 0 a7.5 7.5 0 1 0 -15 0zM254.09 423.96 a7.5 7.5 0 1 0 15 0 a7.5 7.5 0 1 0 -15 0zM448.95 -63.54 a7.5 7.5 0 1 0 15 0 a7.5 7.5 0 1 0 -15 0zM513.91 -26.04 a7.5 7.5 0 1 0 15 0 a7.5 7.5 0 1 0 -15 0zM513.91 48.96 a7.5 7.5 0 1 0 15 0 a7.5 7.5 0 1 0 -15 0zM448.95 86.46 a7.5 7.5 0 1 0 15 0 a7.5 7.5 0 1 0 -15 0zM384 48.96 a7.5 7.5 0 1 0 15 0 a7.5 7.5 0 1 0 -15 0zM384 -26.04 a7.5 7.5 0 1 0 15 0 a7.5 7.5 0 1 0 -15 0zM578.86 161.46 a7.5 7.5 0 1 0 15 0 a7.5 7.5 0 1 0 -15 0zM643.81 198.96 a7.5 7.5 0 1 0 15 0 a7.5 7.5 0 1 0 -15 0zM643.81 273.96 a7.5 7.5 0 1 0 15 0 a7.5 7.5 0 1 0 -15 0zM578.86 311.46 a7.5 7.5 0 1 0 15 0 a7.5 7.5 0 1 0 -15 0zM513.91 273.96 a7.5 7.5 0 1 0 15 0 a7.5 7.5 0 1 0 -15 0zM513.91 198.96 a7.5 7.5 0 1 0 15 0 a7.5 7.5 0 1 0 -15 0zM708.77 311.46 a7.5 7.5 0 1 0 15 0 a7.5 7.5 0 1 0 -15 0zM708.77 386.46 a7.5 7.5 0 1 0 15 0 a7.5 7.5 0 1 0 -15 0zM643.81 423.96 a7.5 7.5 0 1 0 15 0 a7.5 7.5 0 1 0 -15 0zM578.86 386.46 a7.5 7.5 0 1 0 15 0 a7.5 7.5 0 1 0 -15 0zM708.77 -63.54 a7.5 7.5 0 1 0 15 0 a7.5 7.5 0 1 0 -15 0zM773.72 -26.04 a7.5 7.5 0 1 0 15 0 a7.5 7.5 0 1 0 -15 0zM773.72 48.96 a7.5 7.5 0 1 0 15 0 a7.5 7.5 0 1 0 -15 0zM708.77 86.46 a7.5 7.5 0 1 0 15 0 a7.5 7.5 0 1 0 -15 0zM643.81 48.96 a7.5 7.5 0 1 0 15 0 a7.5 7.5 0 1 0 -15 0zM643.81 -26.04 a7.5 7.5 0 1 0 15 0 a7.5 7.5 0 1 0 -15 0zM708.77 161.46 a7.5 7.5 0 1 0 15 0 a7.5 7.5 0 1 0 -15 0zM773.72 198.96 a7.5 7.5 0 1 0 15 0 a7.5 7.5 0 1 0 -15 0zM773.72 273.96 a7.5 7.5 0 1 0 15 0 a7.5 7.5 0 1 0 -15 0zM1228.4 386.46 a7.5 7.5 0 1 0 15 0 a7.5 7.5 0 1 0 -15 0zM1293.35 423.96 a7.5 7.5 0 1 0 15 0 a7.5 7.5 0 1 0 -15 0zM1293.35 498.96 a7.5 7.5 0 1 0 15 0 a7.5 7.5 0 1 0 -15 0zM1228.4 536.46 a7.5 7.5 0 1 0 15 0 a7.5 7.5 0 1 0 -15 0zM1163.44 498.96 a7.5 7.5 0 1 0 15 0 a7.5 7.5 0 1 0 -15 0zM1163.44 423.96 a7.5 7.5 0 1 0 15 0 a7.5 7.5 0 1 0 -15 0zM1423.26 273.96 a7.5 7.5 0 1 0 15 0 a7.5 7.5 0 1 0 -15 0zM1488.21 311.46 a7.5 7.5 0 1 0 15 0 a7.5 7.5 0 1 0 -15 0zM1488.21 386.46 a7.5 7.5 0 1 0 15 0 a7.5 7.5 0 1 0 -15 0zM1423.26 423.96 a7.5 7.5 0 1 0 15 0 a7.5 7.5 0 1 0 -15 0zM1358.31 386.46 a7.5 7.5 0 1 0 15 0 a7.5 7.5 0 1 0 -15 0zM1358.31 311.46 a7.5 7.5 0 1 0 15 0 a7.5 7.5 0 1 0 -15 0zM1553.17 273.96 a7.5 7.5 0 1 0 15 0 a7.5 7.5 0 1 0 -15 0zM1618.12 311.46 a7.5 7.5 0 1 0 15 0 a7.5 7.5 0 1 0 -15 0zM1618.12 386.46 a7.5 7.5 0 1 0 15 0 a7.5 7.5 0 1 0 -15 0zM1553.17 423.96 a7.5 7.5 0 1 0 15 0 a7.5 7.5 0 1 0 -15 0z" fill="#03305d"></path><path d="M54.58 33.2L97.89 58.2L97.89 108.2L54.58 133.2L11.28 108.2L11.28 58.2zM11.28 108.2L54.58 133.2L54.58 183.2L11.28 208.2L-32.02 183.2L-32.02 133.2zM11.28 258.2L54.58 283.2L54.58 333.2L11.28 358.2L-32.02 333.2L-32.02 283.2zM11.28 408.2L54.58 433.2L54.58 483.2L11.28 508.2L-32.02 483.2L-32.02 433.2zM97.89 -41.8L141.19 -16.8L141.19 33.2L97.89 58.2L54.58 33.2L54.58 -16.8zM97.89 108.2L141.19 133.2L141.19 183.2L97.89 208.2L54.58 183.2L54.58 133.2zM141.19 183.2L184.49 208.2L184.49 258.2L141.19 283.2L97.89 258.2L97.89 208.2zM97.89 258.2L141.19 283.2L141.19 333.2L97.89 358.2L54.58 333.2L54.58 283.2zM141.19 333.2L184.49 358.2L184.49 408.2L141.19 433.2L97.89 408.2L97.89 358.2zM141.19 483.2L184.49 508.2L184.49 558.2L141.19 583.2L97.89 558.2L97.89 508.2zM184.49 -41.8L227.79 -16.8L227.79 33.2L184.49 58.2L141.19 33.2L141.19 -16.8zM184.49 108.2L227.79 133.2L227.79 183.2L184.49 208.2L141.19 183.2L141.19 133.2zM184.49 408.2L227.79 433.2L227.79 483.2L184.49 508.2L141.19 483.2L141.19 433.2zM271.09 -41.8L314.4 -16.8L314.4 33.2L271.09 58.2L227.79 33.2L227.79 -16.8zM271.09 108.2L314.4 133.2L314.4 183.2L271.09 208.2L227.79 183.2L227.79 133.2zM401 33.2L444.31 58.2L444.31 108.2L401 133.2L357.7 108.2L357.7 58.2zM357.7 258.2L401 283.2L401 333.2L357.7 358.2L314.4 333.2L314.4 283.2zM401 333.2L444.31 358.2L444.31 408.2L401 433.2L357.7 408.2L357.7 358.2zM487.61 33.2L530.91 58.2L530.91 108.2L487.61 133.2L444.31 108.2L444.31 58.2zM444.31 108.2L487.61 133.2L487.61 183.2L444.31 208.2L401 183.2L401 133.2zM444.31 408.2L487.61 433.2L487.61 483.2L444.31 508.2L401 483.2L401 433.2zM530.91 -41.8L574.21 -16.8L574.21 33.2L530.91 58.2L487.61 33.2L487.61 -16.8zM530.91 258.2L574.21 283.2L574.21 333.2L530.91 358.2L487.61 333.2L487.61 283.2zM574.21 333.2L617.51 358.2L617.51 408.2L574.21 433.2L530.91 408.2L530.91 358.2zM660.82 33.2L704.12 58.2L704.12 108.2L660.82 133.2L617.51 108.2L617.51 58.2zM660.82 183.2L704.12 208.2L704.12 258.2L660.82 283.2L617.51 258.2L617.51 208.2zM617.51 258.2L660.82 283.2L660.82 333.2L617.51 358.2L574.21 333.2L574.21 283.2zM704.12 -41.8L747.42 -16.8L747.42 33.2L704.12 58.2L660.82 33.2L660.82 -16.8zM747.42 183.2L790.73 208.2L790.73 258.2L747.42 283.2L704.12 258.2L704.12 208.2zM747.42 333.2L790.73 358.2L790.73 408.2L747.42 433.2L704.12 408.2L704.12 358.2zM747.42 483.2L790.73 508.2L790.73 558.2L747.42 583.2L704.12 558.2L704.12 508.2zM790.73 108.2L834.03 133.2L834.03 183.2L790.73 208.2L747.42 183.2L747.42 133.2zM790.73 408.2L834.03 433.2L834.03 483.2L790.73 508.2L747.42 483.2L747.42 433.2zM877.33 -41.8L920.63 -16.8L920.63 33.2L877.33 58.2L834.03 33.2L834.03 -16.8zM920.63 33.2L963.94 58.2L963.94 108.2L920.63 133.2L877.33 108.2L877.33 58.2zM877.33 108.2L920.63 133.2L920.63 183.2L877.33 208.2L834.03 183.2L834.03 133.2zM1007.24 33.2L1050.54 58.2L1050.54 108.2L1007.24 133.2L963.94 108.2L963.94 58.2zM1007.24 183.2L1050.54 208.2L1050.54 258.2L1007.24 283.2L963.94 258.2L963.94 208.2zM963.94 258.2L1007.24 283.2L1007.24 333.2L963.94 358.2L920.63 333.2L920.63 283.2zM1007.24 333.2L1050.54 358.2L1050.54 408.2L1007.24 433.2L963.94 408.2L963.94 358.2zM963.94 408.2L1007.24 433.2L1007.24 483.2L963.94 508.2L920.63 483.2L920.63 433.2zM1007.24 483.2L1050.54 508.2L1050.54 558.2L1007.24 583.2L963.94 558.2L963.94 508.2zM1050.54 -41.8L1093.84 -16.8L1093.84 33.2L1050.54 58.2L1007.24 33.2L1007.24 -16.8zM1093.84 33.2L1137.14 58.2L1137.14 108.2L1093.84 133.2L1050.54 108.2L1050.54 58.2zM1050.54 108.2L1093.84 133.2L1093.84 183.2L1050.54 208.2L1007.24 183.2L1007.24 133.2zM1093.84 183.2L1137.14 208.2L1137.14 258.2L1093.84 283.2L1050.54 258.2L1050.54 208.2zM1050.54 258.2L1093.84 283.2L1093.84 333.2L1050.54 358.2L1007.24 333.2L1007.24 283.2zM1093.84 333.2L1137.14 358.2L1137.14 408.2L1093.84 433.2L1050.54 408.2L1050.54 358.2zM1093.84 483.2L1137.14 508.2L1137.14 558.2L1093.84 583.2L1050.54 558.2L1050.54 508.2zM1137.14 -41.8L1180.45 -16.8L1180.45 33.2L1137.14 58.2L1093.84 33.2L1093.84 -16.8zM1180.45 33.2L1223.75 58.2L1223.75 108.2L1180.45 133.2L1137.14 108.2L1137.14 58.2zM1137.14 108.2L1180.45 133.2L1180.45 183.2L1137.14 208.2L1093.84 183.2L1093.84 133.2zM1180.45 183.2L1223.75 208.2L1223.75 258.2L1180.45 283.2L1137.14 258.2L1137.14 208.2zM1137.14 258.2L1180.45 283.2L1180.45 333.2L1137.14 358.2L1093.84 333.2L1093.84 283.2zM1180.45 483.2L1223.75 508.2L1223.75 558.2L1180.45 583.2L1137.14 558.2L1137.14 508.2zM1267.05 33.2L1310.36 58.2L1310.36 108.2L1267.05 133.2L1223.75 108.2L1223.75 58.2zM1223.75 258.2L1267.05 283.2L1267.05 333.2L1223.75 358.2L1180.45 333.2L1180.45 283.2zM1223.75 408.2L1267.05 433.2L1267.05 483.2L1223.75 508.2L1180.45 483.2L1180.45 433.2zM1310.36 -41.8L1353.66 -16.8L1353.66 33.2L1310.36 58.2L1267.05 33.2L1267.05 -16.8zM1353.66 183.2L1396.96 208.2L1396.96 258.2L1353.66 283.2L1310.36 258.2L1310.36 208.2zM1310.36 258.2L1353.66 283.2L1353.66 333.2L1310.36 358.2L1267.05 333.2L1267.05 283.2zM1353.66 333.2L1396.96 358.2L1396.96 408.2L1353.66 433.2L1310.36 408.2L1310.36 358.2zM1310.36 408.2L1353.66 433.2L1353.66 483.2L1310.36 508.2L1267.05 483.2L1267.05 433.2zM1440.26 33.2L1483.57 58.2L1483.57 108.2L1440.26 133.2L1396.96 108.2L1396.96 58.2zM1440.26 183.2L1483.57 208.2L1483.57 258.2L1440.26 283.2L1396.96 258.2L1396.96 208.2zM1396.96 258.2L1440.26 283.2L1440.26 333.2L1396.96 358.2L1353.66 333.2L1353.66 283.2zM1440.26 333.2L1483.57 358.2L1483.57 408.2L1440.26 433.2L1396.96 408.2L1396.96 358.2z" stroke="rgba(6, 80, 156, 0.93)" stroke-width="2"></path></g><defs><mask id="SvgjsMask1000"><rect width="1440" height="560" fill="#ffffff"></rect></mask></defs></svg>